<?xml version="1.0" encoding="iso-8859-1"?>
<!-- Generator: Adobe Illustrator 27.2.0, SVG Export Plug-In . SVG Version: 6.00 Build 0)  -->
<svg version="1.1" id="Capa_1" xmlns="http://www.w3.org/2000/svg" xmlns:xlink="http://www.w3.org/1999/xlink" x="0px" y="0px"
	 viewBox="0 0 510 510" style="enable-background:new 0 0 510 510;" xml:space="preserve">
<g>
	<circle style="fill:#FDCB50;" cx="255" cy="255.009" r="245"/>
	<path style="fill:#FD8F01;" d="M296.05,496.579c-13.35,2.26-27.06,3.43-41.05,3.43c-135.31,0-245-109.69-245-245
		s109.69-245,245-245c13.99,0,27.7,1.17,41.05,3.43c-115.77,19.52-203.96,120.25-203.96,241.57S180.28,477.059,296.05,496.579z"/>
	<path style="fill:#FFFFFF;" d="M408.82,297.166c0,72.829-68.794,131.869-153.657,131.869s-153.657-59.04-153.657-131.869H408.82z"
		/>
</g>
<g>
	<g>
		<path style="fill:#052A75;" d="M255,510c-68.113,0-132.149-26.524-180.312-74.688S0,323.113,0,255
			c0-68.113,26.524-132.149,74.688-180.312S186.887,0,255,0s132.149,26.525,180.312,74.688S510,186.887,510,255
			c0,68.113-26.524,132.149-74.688,180.312S323.113,510,255,510z M255,20C125.421,20,20,125.42,20,255s105.421,235,235,235
			s235-105.42,235-235S384.579,20,255,20z"/>
	</g>
	<g>
		<path style="fill:#052A75;" d="M199.776,208.791c-5.522,0-10-4.477-10-10c0-15.025-12.224-27.249-27.249-27.249
			s-27.249,12.224-27.249,27.249c0,5.523-4.478,10-10,10s-10-4.477-10-10c0-26.053,21.196-47.249,47.249-47.249
			s47.249,21.196,47.249,47.249C209.776,204.313,205.299,208.791,199.776,208.791z"/>
	</g>
	<g>
		<path style="fill:#052A75;" d="M383.104,208.791c-5.522,0-10-4.477-10-10c0-15.025-12.224-27.249-27.249-27.249
			s-27.249,12.224-27.249,27.249c0,5.523-4.478,10-10,10s-10-4.477-10-10c0-26.053,21.196-47.249,47.249-47.249
			s47.249,21.196,47.249,47.249C393.104,204.313,388.626,208.791,383.104,208.791z"/>
	</g>
	<g>
		<g>
			<path style="fill:#052A75;" d="M408.668,289.379h-307.32c-5.52,0-10,4.47-10,10c0,78.22,73.42,141.87,163.66,141.87
				s163.66-63.65,163.66-141.87C418.668,293.849,414.188,289.379,408.668,289.379z M255.008,421.249
				c-45.4,0-85.94-17.96-112.28-45.94h224.56C340.948,403.289,300.408,421.249,255.008,421.249z M382.618,355.309h-255.22
				c-8.54-13.96-13.99-29.49-15.57-45.93h286.36C396.608,325.819,391.158,341.349,382.618,355.309z"/>
		</g>
	</g>
</g>
<g>
</g>
<g>
</g>
<g>
</g>
<g>
</g>
<g>
</g>
<g>
</g>
<g>
</g>
<g>
</g>
<g>
</g>
<g>
</g>
<g>
</g>
<g>
</g>
<g>
</g>
<g>
</g>
<g>
</g>
</svg>
