<?xml version="1.0" encoding="iso-8859-1"?>
<!-- Generator: Adobe Illustrator 27.2.0, SVG Export Plug-In . SVG Version: 6.00 Build 0)  -->
<svg version="1.1" id="Capa_1" xmlns="http://www.w3.org/2000/svg" xmlns:xlink="http://www.w3.org/1999/xlink" x="0px" y="0px"
	 viewBox="0 0 510 510" style="enable-background:new 0 0 510 510;" xml:space="preserve">
<g>
	<circle style="fill:#FDCB50;" cx="255.007" cy="255" r="245"/>
	<path style="fill:#FD8F01;" d="M296.712,496.57c-13.35,2.26-27.06,3.43-41.05,3.43c-135.31,0-245-109.69-245-245
		s109.69-245,245-245c13.99,0,27.7,1.17,41.05,3.43C180.942,32.95,92.752,133.68,92.752,255S180.942,477.05,296.712,496.57z"/>
	<g>
		<path style="fill:#DB4B86;" d="M139.292,397.989c0-54.846,51.808-99.307,115.715-99.307s115.715,44.461,115.715,99.307l0,0
			C294.764,378.865,215.251,378.865,139.292,397.989L139.292,397.989z"/>
	</g>
</g>
<g>
	<g>
		<path style="fill:#052A75;" d="M255,510c-68.113,0-132.149-26.524-180.312-74.688S0,323.113,0,255S26.525,122.851,74.688,74.688
			S186.887,0,255,0c68.113,0,132.149,26.524,180.312,74.688S510,186.887,510,255s-26.524,132.149-74.688,180.312
			S323.113,510,255,510z M255,20C125.42,20,20,125.421,20,255s105.42,235,235,235s235-105.421,235-235S384.58,20,255,20z"/>
	</g>
	<g>
		<g>
			<path style="fill:#052A75;" d="M370.722,407.989c-0.815,0-1.634-0.1-2.441-0.303c-74.105-18.657-152.444-18.657-226.547,0
				c-2.991,0.753-6.158,0.084-8.589-1.811c-2.431-1.895-3.853-4.805-3.853-7.887c0-60.271,56.396-109.307,125.715-109.307
				s125.715,49.035,125.715,109.307c0,3.082-1.421,5.992-3.853,7.887C375.095,407.26,372.927,407.989,370.722,407.989z
				 M255.007,308.683c-53.108,0-97.195,33.254-104.616,76.409c68.725-15.194,140.507-15.193,209.231,0
				C352.202,341.937,308.115,308.683,255.007,308.683z"/>
		</g>
	</g>
	<g>
		<path style="fill:#052A75;" d="M131.229,136.02c-3.517,0-7.059-0.338-10.588-1.021c-5.422-1.05-8.967-6.296-7.917-11.718
			c1.05-5.423,6.298-8.974,11.719-7.917c9.204,1.779,18.552-0.127,26.322-5.376c7.769-5.249,13.029-13.209,14.811-22.414
			c1.05-5.422,6.297-8.971,11.719-7.917c5.422,1.05,8.966,6.296,7.917,11.718c-2.797,14.45-11.055,26.946-23.25,35.186
			C152.744,132.786,142.11,136.02,131.229,136.02z"/>
	</g>
	<g>
		<path style="fill:#052A75;" d="M384.68,136.02c-10.882,0-21.514-3.232-30.731-9.46c-12.195-8.239-20.453-20.735-23.25-35.186
			c-1.049-5.422,2.495-10.668,7.917-11.718c5.429-1.055,10.668,2.494,11.719,7.917c1.782,9.205,7.042,17.165,14.811,22.414
			c7.768,5.249,17.117,7.153,26.321,5.376c5.424-1.055,10.669,2.494,11.719,7.917c1.049,5.422-2.495,10.668-7.917,11.718
			C391.739,135.682,388.196,136.02,384.68,136.02z"/>
	</g>
	<g>
		<g>
			<path style="fill:#052A75;" d="M364.549,267.84c-1.697,0-3.416-0.433-4.991-1.342l-66.735-38.529c-3.094-1.786-5-5.088-5-8.66
				s1.906-6.874,5-8.66l66.735-38.53c4.782-2.763,10.898-1.123,13.66,3.66s1.123,10.898-3.66,13.66l-51.735,29.87l51.735,29.869
				c4.783,2.762,6.422,8.877,3.66,13.66C371.366,266.046,368.005,267.84,364.549,267.84z"/>
		</g>
		<g>
			<path style="fill:#052A75;" d="M145.466,267.84c-3.456,0-6.817-1.794-8.669-5.002c-2.762-4.783-1.123-10.898,3.66-13.66
				l51.735-29.869l-51.735-29.87c-4.783-2.762-6.422-8.877-3.66-13.66c2.762-4.782,8.878-6.421,13.66-3.66l66.735,38.53
				c3.094,1.786,5,5.088,5,8.66s-1.906,6.874-5,8.66l-66.735,38.529C148.882,267.407,147.163,267.84,145.466,267.84z"/>
		</g>
	</g>
</g>
<g>
</g>
<g>
</g>
<g>
</g>
<g>
</g>
<g>
</g>
<g>
</g>
<g>
</g>
<g>
</g>
<g>
</g>
<g>
</g>
<g>
</g>
<g>
</g>
<g>
</g>
<g>
</g>
<g>
</g>
</svg>
