<svg width="144" height="25" viewBox="0 0 144 25" fill="none" xmlns="http://www.w3.org/2000/svg">
<path d="M9.87269 0.772893C12.7368 0.772893 15.601 0.794841 18.4651 0.758262C19.204 0.747288 19.471 0.933842 19.4601 1.71663C19.4162 4.58078 19.4271 7.44126 19.4564 10.3054C19.4637 10.9967 19.2955 11.2638 18.5383 11.2491C16.1936 11.1979 13.8452 11.2491 11.5005 11.2199C10.7981 11.2089 10.5348 11.4101 10.5457 12.149C10.586 14.523 10.5311 16.9006 10.5787 19.2746C10.5933 20.0245 10.319 20.2147 9.62762 20.2074C6.70129 20.1818 3.77862 20.1854 0.852293 20.2074C0.226791 20.211 0 20.0171 0 19.3697C0.0182895 13.4622 0.0219474 7.551 0 1.64347C0 0.941156 0.26337 0.75826 0.918136 0.765576C3.90299 0.787524 6.88784 0.776552 9.87635 0.776552L9.87269 0.772893ZM9.0899 15.0168C9.0899 13.9523 9.08258 12.8879 9.09356 11.8271C9.09722 11.3991 9.00211 11.1394 8.49366 11.1394C6.3355 11.154 4.17733 11.1504 2.01917 11.1431C1.60217 11.1431 1.40464 11.315 1.40829 11.7393C1.41195 13.8975 1.41561 16.0556 1.40829 18.2101C1.40829 18.671 1.61314 18.8576 2.07403 18.8539C4.20294 18.843 6.32818 18.8393 8.45708 18.8539C8.93261 18.8539 9.10087 18.6674 9.09356 18.2065C9.07527 17.142 9.08624 16.0812 9.0899 15.0168ZM14.3207 9.83719C15.3559 9.83719 16.3874 9.82256 17.419 9.8445C17.9494 9.85548 18.1871 9.68721 18.1835 9.11658C18.1615 7.04986 18.1615 4.98315 18.1835 2.91643C18.1871 2.38237 18.0225 2.14827 17.4555 2.15192C15.3596 2.17021 13.2599 2.17021 11.1639 2.15192C10.6628 2.14827 10.458 2.31653 10.4616 2.83595C10.4799 4.93193 10.4836 7.02791 10.4616 9.12755C10.4543 9.70184 10.6921 9.85914 11.2225 9.84816C12.254 9.8189 13.2892 9.84085 14.3207 9.84085V9.83719ZM5.27836 9.83719C6.28429 9.83719 7.29021 9.81158 8.29614 9.84816C8.86677 9.86645 9.11185 9.72013 9.10453 9.09097C9.07161 7.0206 9.07527 4.94657 9.10453 2.87619C9.11185 2.30556 8.90335 2.14461 8.35832 2.15192C6.31721 2.17753 4.27609 2.18119 2.23498 2.15192C1.6168 2.14095 1.45585 2.37872 1.46316 2.95666C1.48877 4.99778 1.49243 7.03889 1.46316 9.08C1.45219 9.69819 1.68995 9.87011 2.2679 9.85182C3.27383 9.8189 4.27975 9.84085 5.28568 9.84085L5.27836 9.83719Z" fill="#374151"/>
<path d="M32.1933 5.09605C32.0031 4.16328 32.1494 3.21954 32.1092 2.28311C32.0982 2.00877 32.175 1.7893 32.5042 1.80393C34.7173 1.89172 36.9742 1.44911 39.1323 2.07095C41.232 2.67817 42.5525 4.21083 42.8085 6.38729C42.9988 8.00774 42.9402 9.67209 42.8342 11.3072C42.75 12.6094 42.1574 13.7872 41.1149 14.6139C40.5772 15.0419 40.5662 15.4479 40.7272 16.0186C41.382 18.2938 41.9892 20.58 42.6586 22.8515C42.8671 23.5575 42.7573 23.8392 41.9636 23.7623C41.3308 23.7002 40.6833 23.7002 40.0505 23.7623C39.3482 23.8355 39.0921 23.5136 38.9312 22.8918C38.4373 20.9823 37.8667 19.0912 37.3985 17.1745C37.1937 16.3441 36.8681 15.8539 35.9353 16.0515C34.6917 16.0515 33.448 16.0588 32.2043 16.0625C32.0397 14.8992 32.0287 13.7324 32.2079 12.5692C33.426 12.5692 34.6441 12.5692 35.8658 12.5692C36.5096 12.8289 37.1681 12.752 37.8192 12.6277C38.73 12.4521 39.1762 11.8266 39.2055 10.9597C39.2531 9.56967 39.2311 8.176 39.2055 6.78234C39.1909 5.94834 38.719 5.46915 37.9326 5.22773C37.2741 5.02655 36.6084 5.15091 35.95 5.08873C34.6953 5.08873 33.4406 5.08873 32.1896 5.09239L32.1933 5.09605Z" fill="#6B7280"/>
<path d="M91.7409 5.0966C91.73 4.18578 91.719 3.2713 91.708 2.36049C91.708 2.07517 91.7117 1.78619 92.114 1.80083C94.1771 1.87398 96.2658 1.53746 98.3032 1.98738C100.754 2.52875 102.309 4.5406 102.353 7.05358C102.374 8.30093 102.36 9.54827 102.353 10.7993C102.349 12.31 101.807 13.5939 100.648 14.5742C100.129 15.0095 100.055 15.4631 100.242 16.0996C100.919 18.4004 101.519 20.7268 102.195 23.0277C102.374 23.6349 102.217 23.7483 101.636 23.7666C98.7422 23.847 98.7458 23.858 97.9996 21.0561C97.6411 19.7063 97.1876 18.3748 96.9205 17.0067C96.7303 16.0337 96.1633 15.9862 95.4171 16.0667C94.1917 16.0667 92.9627 16.0667 91.7373 16.0667C91.7373 14.962 91.7409 13.8536 91.7446 12.7489C92.9736 12.7489 94.199 12.7489 95.4281 12.7453C95.7902 12.738 96.156 12.727 96.5182 12.7233C98.1423 12.7124 98.7751 12.0832 98.7897 10.4628C98.797 9.79335 98.7897 9.12762 98.7897 8.45822C98.7897 5.35631 98.5446 5.11123 95.4244 5.10026C94.1954 5.10026 92.9663 5.10026 91.7373 5.10026L91.7409 5.0966Z" fill="#6B7280"/>
<path d="M104.725 5.27975C104.715 4.30675 104.704 3.33009 104.693 2.35708C104.693 2.06811 104.704 1.78645 105.106 1.80108C107.14 1.8779 109.199 1.54137 111.211 1.973C113.775 2.52901 115.322 4.52622 115.337 7.15992C115.355 10.8471 115.275 14.5343 115.363 18.2214C115.44 21.4367 112.831 23.8253 109.759 23.7595C108.296 23.7266 106.832 23.7376 105.369 23.7595C104.857 23.7668 104.663 23.6022 104.685 23.0828C104.725 22.1391 104.715 21.1953 104.725 20.2516C105.933 20.2516 107.143 20.2589 108.35 20.2625C110.845 20.8698 111.862 19.9736 111.807 17.852C111.719 14.4867 111.785 11.1141 111.785 7.74518C111.785 5.46996 110.626 4.61767 108.387 5.25049C107.169 5.2578 105.951 5.26878 104.733 5.27609L104.725 5.27975Z" fill="#6B7280"/>
<path d="M81.6342 1.83602C82.4865 1.82139 83.3461 1.87626 84.1874 1.77383C85.047 1.66775 85.314 2.03355 85.4823 2.80902C86.437 7.19485 87.4393 11.5661 88.4306 15.9446C88.9537 18.2527 89.4841 20.5572 90.0291 22.858C90.1864 23.5238 90.084 23.8713 89.2902 23.7615C88.811 23.6957 88.3172 23.7505 87.8307 23.7505C86.9406 23.7505 86.4065 23.3031 86.2285 22.4081C85.9676 21.0864 85.158 20.4255 83.7997 20.4255C82.8559 20.4255 81.9122 20.4401 80.9685 20.4511C79.7504 20.4511 78.5286 20.4548 77.3105 20.4584C77.5483 19.2842 77.7202 18.0918 78.1775 16.9724C79.3773 16.9724 80.5771 16.9651 81.7768 16.9615C82.6913 17.287 83.6351 17.0529 84.5642 17.0968C84.9592 17.1151 84.9848 16.8152 84.9153 16.5225C84.3996 14.3205 83.8728 12.1221 83.3534 9.92C83.2364 9.32376 83.1339 8.72752 83.0059 8.13859C82.556 6.03895 82.0951 3.93932 81.6378 1.83968L81.6342 1.83602Z" fill="#6B7280"/>
<path d="M64.3137 14.4231C64.3137 13.3184 64.3064 12.2137 64.3027 11.109C65.5172 11.109 66.7316 11.1127 67.946 11.1164C68.8276 11.1237 69.7128 11.0981 70.5943 11.1456C71.2052 11.1822 71.3844 10.9554 71.3771 10.3628C71.3515 7.83521 71.4027 5.3076 71.3479 2.78364C71.3296 1.96793 71.5673 1.68627 72.3721 1.78137C72.9134 1.84356 73.4731 1.83624 74.0145 1.78137C74.7314 1.71187 74.9509 1.96061 74.9436 2.69219C74.9107 6.74149 74.929 10.7908 74.929 14.8401C74.929 17.5177 74.9107 20.1989 74.9436 22.8765C74.9509 23.5459 74.7753 23.8349 74.0767 23.7544C73.2097 23.6557 72.0977 24.1275 71.5308 23.5459C71.0113 23.0082 71.3881 21.9182 71.3771 21.0732C71.3552 19.1564 71.3442 17.236 71.3808 15.3193C71.3954 14.6316 71.154 14.4048 70.4809 14.4341C69.6616 14.4743 68.8385 14.4268 68.0155 14.4158C66.7828 14.4158 65.5464 14.4158 64.3137 14.4158V14.4231Z" fill="#6B7280"/>
<path d="M48.885 12.7817C48.885 16.1616 48.8703 19.5378 48.8959 22.9177C48.8996 23.5359 48.746 23.8066 48.0839 23.7554C47.1475 23.6786 45.944 24.1249 45.3368 23.5908C44.7076 23.0385 45.1356 21.8094 45.132 20.8803C45.11 14.8557 45.1356 8.82749 45.1027 2.80291C45.099 2.01646 45.271 1.67628 46.105 1.78601C46.9975 1.90307 48.157 1.40193 48.7277 2.00549C49.2508 2.55783 48.8703 3.69178 48.8776 4.56968C48.8959 7.30945 48.885 10.0492 48.885 12.7853V12.7817Z" fill="#6B7280"/>
<path d="M117.891 2.16256C117.837 1.69435 118.191 1.80043 118.433 1.79677C119.281 1.7858 120.134 1.8297 120.979 1.77849C121.513 1.74556 121.703 1.97601 121.875 2.43691C123.122 5.81681 124.399 9.18575 125.668 12.5583C125.782 12.8583 125.789 13.2314 126.177 13.3594C126.253 14.8006 126.897 16.0809 127.402 17.3868C128.218 19.4937 128.861 21.6665 129.864 23.7003C128.719 24.1027 127.541 23.821 126.381 23.8503C126.027 23.8576 126.049 23.4552 125.961 23.2175C124.662 19.7754 123.375 16.3296 122.083 12.8875C121.981 12.6132 121.955 12.2767 121.601 12.1706C121.487 11.5195 121.377 10.8684 121.143 10.2429C120.24 7.83598 119.366 5.4181 118.451 3.01486C118.334 2.71125 118.374 2.25035 117.891 2.16256Z" fill="#6B7280"/>
<path d="M129.867 23.7009C128.864 21.6671 128.224 19.4943 127.405 17.3874C126.896 16.0815 126.256 14.8012 126.179 13.36C126.168 9.70576 126.161 6.05517 126.132 2.40092C126.128 1.9071 126.322 1.77176 126.783 1.79005C127.544 1.81565 128.308 1.8376 129.066 1.78639C129.713 1.7425 129.885 1.9766 129.881 2.60942C129.856 7.17815 129.87 11.7432 129.867 16.3119C129.867 18.7774 129.867 21.2428 129.867 23.7082V23.7009Z" fill="#374151"/>
<path d="M117.89 2.16211C118.373 2.24624 118.333 2.7108 118.45 3.0144C119.368 5.41765 120.239 7.83553 121.142 10.2424C121.376 10.8679 121.486 11.519 121.599 12.1701C121.654 15.7915 121.669 19.4128 121.599 23.0378C121.588 23.6889 121.318 23.8023 120.776 23.7694C119.869 23.7108 118.702 24.1352 118.117 23.6121C117.514 23.0744 117.923 21.8855 117.92 20.9857C117.894 14.7124 117.898 8.43908 117.89 2.16943V2.16211Z" fill="#374151"/>
<path d="M137.131 20.6167C138.938 20.7118 139.465 20.2107 139.472 18.3744C139.472 18.1293 139.443 17.8843 139.479 17.6428C139.615 16.721 139.311 16.2602 138.312 16.4357C137.786 16.5272 137.617 16.2492 137.639 15.7517C137.669 15.1116 137.676 14.4714 137.639 13.835C137.603 13.2534 137.851 13.1107 138.389 13.1217C139.761 13.1509 141.133 13.1509 142.501 13.1217C143.046 13.1107 143.265 13.268 143.243 13.8423C143.174 15.7261 143.324 17.6136 143.101 19.4974C142.83 21.8019 140.763 23.8101 138.323 24.0588C136.008 24.2966 133.612 22.7859 132.873 20.624C134.292 20.624 135.712 20.624 137.131 20.624V20.6167Z" fill="#6B7280"/>
<path d="M137.131 20.616C135.712 20.616 134.293 20.616 132.874 20.616C132.533 19.9466 132.486 19.226 132.486 18.4944C132.486 14.6755 132.493 10.853 132.479 7.03414C132.479 6.29159 132.618 5.59293 132.874 4.9089C133.591 4.87964 134.3 4.8394 135.017 4.76624C135.858 4.68211 136.74 4.57237 137.585 4.86135C136.455 5.1869 136.136 6.02091 136.14 7.09633C136.151 10.8384 136.162 14.5768 136.129 18.3188C136.122 19.2698 136.345 20.0453 137.131 20.616Z" fill="#374151"/>
<path d="M51.8619 20.6158C51.5253 19.9464 51.4741 19.2258 51.4741 18.4942C51.4741 14.6754 51.4814 10.8529 51.4668 7.03401C51.4668 6.29146 51.6058 5.5928 51.8619 4.90877C53.314 4.92706 54.7699 4.80269 56.2221 4.94169C55.41 5.3843 55.1284 6.10491 55.1284 6.99012C55.1357 10.8602 55.1284 14.7303 55.1284 18.6003C55.1284 19.3685 55.3076 20.0452 56.0172 20.4768C54.6419 20.806 53.2445 20.5317 51.8582 20.6195L51.8619 20.6158Z" fill="#374151"/>
<path d="M13.5413 19.4356C13.5413 18.0054 13.5633 16.5715 13.5303 15.1412C13.5157 14.5048 13.7425 14.2816 14.379 14.2853C17.3016 14.3072 20.228 14.3072 23.1506 14.2853C23.8786 14.278 24.109 14.5816 24.1053 15.2729C24.0871 18.1041 24.0797 20.9354 24.1053 23.7666C24.1127 24.5384 23.7944 24.7652 23.0628 24.7579C20.1987 24.7323 17.3382 24.7286 14.4741 24.7579C13.7608 24.7652 13.5047 24.5421 13.5267 23.8141C13.5742 22.3546 13.5413 20.8915 13.5413 19.4283V19.4356ZM18.7465 23.3679C19.811 23.3679 20.8754 23.3496 21.9362 23.3752C22.4373 23.3862 22.6385 23.2289 22.6349 22.7021C22.6129 20.5769 22.6166 18.448 22.6349 16.3227C22.6349 15.8545 22.4703 15.6789 21.9984 15.6826C19.9024 15.6972 17.8028 15.6972 15.7068 15.6826C15.213 15.6789 14.9935 15.8289 14.9972 16.3557C15.0154 18.4809 15.0118 20.6098 14.9972 22.735C14.9972 23.2069 15.1801 23.3788 15.6446 23.3715C16.6761 23.3532 17.7113 23.3642 18.7429 23.3679H18.7465Z" fill="#374151"/>
<path d="M104.726 5.27951C105.944 5.2722 107.162 5.26122 108.381 5.25391C108.37 10.2579 108.359 15.2619 108.348 20.2623C107.141 20.2623 105.93 20.255 104.723 20.2513C104.723 15.2619 104.723 10.2689 104.723 5.27951H104.726Z" fill="#374151"/>
<path d="M51.8621 20.6165C53.2484 20.5324 54.6457 20.8067 56.0211 20.4739C57.4989 20.9348 58.4097 20.302 58.4609 18.7839C58.4609 18.6925 58.4609 18.601 58.4609 18.5096C58.4756 17.1269 59.1901 16.4355 60.6045 16.4355C61.6994 16.4355 62.2371 16.983 62.2176 18.0779C62.1627 21.3152 60.5313 23.4295 57.6489 23.9964C55.3078 24.4573 52.6339 22.8991 51.8584 20.6129L51.8621 20.6165Z" fill="#6B7280"/>
<path d="M81.7732 16.9594C80.5734 16.9594 79.3736 16.9667 78.1738 16.9704C78.2762 15.5146 78.7481 14.1355 79.059 12.7236C79.8309 9.2449 80.6356 5.77721 81.4257 2.3022C81.4623 2.13393 81.4184 1.92909 81.6306 1.83398C82.0878 3.93362 82.545 6.03326 82.9986 8.1329C83.1266 8.72548 83.2327 9.32172 83.3461 9.9143C82.823 12.2627 82.2963 14.6074 81.7732 16.9558V16.9594Z" fill="#374151"/>
<path d="M56.2225 4.94149C54.7703 4.80249 53.3182 4.92319 51.8623 4.90856C53.117 1.55792 57.3053 0.134995 60.5462 3.00645C61.9435 4.24282 62.2105 5.96936 62.2178 7.7471C62.2178 8.10923 62.0203 8.21897 61.6948 8.21165C61.2997 8.20434 60.9047 8.21531 60.5096 8.21165C59.9024 8.20068 59.1927 8.37992 58.7172 8.12021C58.1393 7.80563 58.5416 7.01552 58.4575 6.44123C58.2856 5.28533 57.6052 4.8098 56.2225 4.94514V4.94149Z" fill="#6B7280"/>
<path d="M137.582 4.86497C136.737 4.576 135.859 4.68573 135.014 4.76987C134.297 4.84302 133.587 4.8796 132.87 4.91252C134.128 1.55822 138.32 0.138954 141.558 3.01407C142.951 4.25044 143.222 5.98063 143.226 7.75838C143.226 8.12417 143.014 8.21927 142.695 8.21561C142.3 8.2083 141.905 8.21927 141.51 8.21561C140.903 8.20464 140.186 8.38388 139.718 8.12051C139.154 7.80593 139.553 7.01216 139.462 6.43421C139.304 5.41 138.774 4.94544 137.578 4.86863L137.582 4.86497Z" fill="#6B7280"/>
<path d="M67.9457 11.1178C66.7312 11.1178 65.5168 11.1141 64.3024 11.1104C64.2951 8.21703 64.3024 5.32363 64.2658 2.43022C64.2585 1.87422 64.4853 1.76814 64.9681 1.78643C65.729 1.81569 66.4935 1.83033 67.2507 1.78277C67.8469 1.74619 67.953 1.99859 67.9493 2.52533C67.931 5.38947 67.942 8.25361 67.942 11.1178H67.9457Z" fill="#374151"/>
<path d="M64.3134 14.4238C65.5461 14.4238 66.7825 14.4238 68.0152 14.4238C67.9896 17.2441 67.9457 20.068 67.9566 22.8882C67.9566 23.543 67.825 23.8356 67.1117 23.7625C66.2118 23.671 65.0413 24.1209 64.4707 23.5979C63.8854 23.0601 64.2987 21.8786 64.2878 20.9788C64.2695 18.795 64.2987 16.6076 64.3134 14.4238Z" fill="#374151"/>
<path d="M95.4311 12.7446C94.202 12.7446 92.9766 12.7446 91.7476 12.7483C91.7476 10.1987 91.7439 7.64917 91.7402 5.09961C92.9693 5.09961 94.1984 5.09961 95.4274 5.09961C95.3689 7.64551 95.3286 10.1951 95.4274 12.741L95.4311 12.7446Z" fill="#374151"/>
<path d="M32.2044 16.0618C33.4481 16.0618 34.6918 16.0544 35.9355 16.0508C35.9208 18.326 35.8806 20.5976 35.9025 22.8728C35.9098 23.5202 35.7818 23.8312 35.0576 23.7543C34.1577 23.6629 33.0018 24.1165 32.4165 23.5824C31.8203 23.0374 32.2446 21.8669 32.2227 20.9707C32.1861 19.3356 32.208 17.6968 32.2044 16.0581V16.0618Z" fill="#374151"/>
<path d="M91.74 16.0664C92.9654 16.0664 94.1944 16.0664 95.4198 16.0664C95.4052 18.3709 95.3759 20.6754 95.3906 22.9798C95.3906 23.5541 95.2589 23.8029 94.637 23.7626C93.8835 23.7114 93.119 23.7224 92.3618 23.7626C91.8278 23.7883 91.6961 23.5724 91.7034 23.075C91.7327 20.7412 91.729 18.4038 91.74 16.0701V16.0664Z" fill="#374151"/>
<path d="M32.1931 5.09546C33.4478 5.09546 34.7024 5.09545 35.9534 5.0918C35.9242 7.58649 35.8949 10.0812 35.8657 12.5722C34.6476 12.5722 33.4295 12.5722 32.2077 12.5722C32.2004 10.0812 32.1968 7.58649 32.1895 5.09546H32.1931Z" fill="#374151"/>
<path d="M77.3063 20.4565C78.5244 20.4565 79.7462 20.4529 80.9642 20.4492C80.7557 21.3637 80.5472 22.2782 80.3424 23.1926C80.251 23.606 80.0315 23.8072 79.5779 23.7633C78.5903 23.6682 77.588 23.9169 76.6113 23.6316C76.8089 22.7171 77.0027 21.8063 77.2002 20.8918C77.2332 20.7455 77.2697 20.5955 77.3063 20.4492V20.4565Z" fill="#374151"/>
</svg>
