<svg width="1113" height="227" viewBox="0 0 1113 227" fill="none" xmlns="http://www.w3.org/2000/svg">
<path d="M1.70739 36.3807C-0.194726 27.053 1.26846 17.6155 0.866087 8.25112C0.756349 5.50766 1.52452 3.3129 4.81665 3.45922C26.9471 4.33712 49.5164 -0.0890078 71.0982 6.1295C92.0946 12.2017 105.3 27.5285 107.86 49.2933C109.762 65.498 109.177 82.1416 108.116 98.4926C107.275 111.515 101.349 123.294 90.9241 131.56C85.5469 135.84 85.4372 139.901 87.0467 145.607C93.5944 168.359 99.6665 191.222 106.361 213.937C108.446 220.997 107.348 223.814 99.4105 223.046C93.0823 222.424 86.6078 222.424 80.2796 223.046C73.2564 223.777 70.6958 220.558 69.0863 214.34C64.1482 195.245 58.4418 176.334 53.7597 157.166C51.7112 148.863 48.4557 143.961 39.128 145.936C26.691 145.936 14.2541 146.009 1.81718 146.046C0.171118 134.414 0.0613598 122.745 1.85374 111.113C14.0346 111.113 26.2155 111.113 38.433 111.113C44.8709 113.71 51.4551 112.942 57.9662 111.698C67.0745 109.942 71.5372 103.687 71.8298 95.0176C72.3053 81.1174 72.0858 67.1806 71.8298 53.2439C71.6835 44.9037 66.9647 40.1118 59.1002 37.6976C52.5159 35.6857 45.8585 36.9294 39.2743 36.3076C26.7276 36.3076 14.1809 36.3076 1.67083 36.3441L1.70739 36.3807Z" fill="white"/>
<path d="M597.189 36.3882C597.079 27.28 596.969 18.1351 596.859 9.02679C596.859 6.17359 596.896 3.28382 600.92 3.43014C621.55 4.16173 642.437 0.796425 662.812 5.2957C687.32 10.7095 702.866 30.8282 703.305 55.9582C703.524 68.4318 703.378 80.9054 703.305 93.4156C703.268 108.523 697.855 121.362 686.259 131.166C681.065 135.519 680.333 140.054 682.199 146.419C688.966 169.428 694.965 192.692 701.732 215.701C703.524 221.773 701.952 222.907 696.135 223.09C667.201 223.895 667.238 224.004 659.776 195.984C656.191 182.487 651.655 169.172 648.985 155.491C647.083 145.761 641.413 145.285 633.951 146.09C621.697 146.09 609.406 146.09 597.152 146.09C597.152 135.043 597.189 123.959 597.225 112.912C609.516 112.912 621.77 112.912 634.06 112.876C637.682 112.803 641.34 112.693 644.961 112.656C661.202 112.547 667.53 106.255 667.677 90.0503C667.75 83.3563 667.677 76.6988 667.677 70.0048C667.677 38.9854 665.226 36.5346 634.024 36.4248C621.733 36.4248 609.443 36.4248 597.152 36.4248L597.189 36.3882Z" fill="white"/>
<path d="M727.034 38.2198C726.924 28.4896 726.815 18.7229 726.705 8.99278C726.705 6.10301 726.815 3.28637 730.838 3.43269C751.176 4.20086 771.771 0.835554 791.889 5.15193C817.531 10.712 833.004 30.6844 833.151 57.0216C833.333 93.8937 832.529 130.766 833.407 167.638C834.175 199.791 808.094 223.678 777.367 223.019C762.736 222.69 748.104 222.8 733.472 223.019C728.351 223.092 726.412 221.446 726.632 216.252C727.034 206.815 726.924 197.377 727.034 187.94C739.105 187.94 751.213 188.013 763.284 188.049C788.231 194.121 798.4 185.159 797.852 163.943C796.974 130.29 797.632 96.564 797.632 62.8743C797.632 40.1219 786.036 31.5989 763.65 37.9271C751.469 38.0003 739.288 38.11 727.107 38.1832L727.034 38.2198Z" fill="white"/>
<path d="M496.118 3.78011C504.641 3.63379 513.238 4.18249 521.651 3.15826C530.247 2.09746 532.917 5.75541 534.6 13.5103C544.147 57.369 554.17 101.081 564.083 144.867C569.313 167.949 574.617 190.994 580.068 214.002C581.641 220.66 580.616 224.135 572.679 223.037C567.887 222.379 562.949 222.928 558.084 222.928C549.183 222.928 543.842 218.453 542.062 209.503C539.453 196.286 531.356 189.677 517.773 189.677C508.336 189.677 498.898 189.823 489.461 189.933C477.28 189.933 465.063 189.97 452.882 190.006C455.259 178.264 456.979 166.339 461.551 155.146C473.549 155.146 485.547 155.073 497.545 155.036C506.69 158.292 516.127 155.951 525.418 156.39C529.369 156.573 529.625 153.573 528.93 150.647C523.772 128.626 518.505 106.642 513.311 84.6207C512.14 78.6583 511.116 72.6958 509.836 66.8065C505.336 45.8099 500.727 24.8133 496.155 3.8167L496.118 3.78011Z" fill="white"/>
<path d="M322.912 129.656C322.912 118.609 322.839 107.562 322.803 96.5152C334.947 96.5152 347.091 96.5517 359.236 96.5883C368.051 96.6615 376.903 96.4054 385.719 96.881C391.828 97.2468 393.62 94.9788 393.547 89.053C393.291 63.7766 393.803 38.5001 393.254 13.2603C393.071 5.1031 395.449 2.28649 403.496 3.23756C408.91 3.85941 414.507 3.78625 419.921 3.23756C427.09 2.54255 429.285 5.02995 429.212 12.3458C428.882 52.8393 429.065 93.3327 429.065 133.826C429.065 160.602 428.882 187.415 429.212 214.191C429.285 220.885 427.529 223.775 420.542 222.97C411.873 221.983 400.753 226.701 395.083 220.885C389.889 215.508 393.657 204.607 393.547 196.158C393.327 176.99 393.218 157.786 393.584 138.618C393.73 131.741 391.316 129.473 384.585 129.766C376.391 130.168 368.161 129.693 359.931 129.583C347.603 129.583 335.24 129.583 322.912 129.583V129.656Z" fill="white"/>
<path d="M168.625 113.24C168.625 147.039 168.479 180.802 168.735 214.602C168.771 220.783 167.235 223.49 160.614 222.978C151.25 222.21 139.215 226.673 133.143 221.332C126.852 215.809 131.131 203.518 131.095 194.227C130.875 133.98 131.131 73.6975 130.802 13.4511C130.766 5.58653 132.485 2.18464 140.825 3.28202C149.75 4.45257 161.346 -0.558825 167.052 5.47679C172.283 11.0003 168.479 22.3399 168.552 31.119C168.735 58.517 168.625 85.915 168.625 113.276V113.24Z" fill="white"/>
<path d="M858.695 7.04951C858.147 2.36734 861.695 3.42814 864.109 3.39156C872.595 3.28182 881.119 3.72079 889.568 3.20868C894.909 2.87946 896.811 5.18395 898.53 9.79297C911.004 43.5924 923.77 77.2821 936.463 111.008C937.597 114.008 937.67 117.739 941.547 119.019C942.316 133.432 948.754 146.234 953.801 159.293C961.959 180.363 968.396 202.091 978.419 222.429C966.97 226.453 955.191 223.636 943.596 223.929C940.048 224.002 940.267 219.979 939.389 217.601C926.404 183.18 913.528 148.722 900.615 114.3C899.591 111.557 899.335 108.192 895.787 107.131C894.653 100.62 893.555 94.1086 891.214 87.8535C882.179 63.7843 873.437 39.6052 864.292 15.5725C863.122 12.5364 863.524 7.92741 858.695 7.04951Z" fill="white"/>
<path d="M978.446 222.435C968.423 202.097 962.021 180.369 953.828 159.299C948.743 146.24 942.342 133.437 941.574 119.025C941.464 82.4823 941.391 45.976 941.098 9.43308C941.062 4.49485 943 3.14142 947.609 3.32432C955.218 3.58037 962.863 3.79984 970.435 3.28773C976.909 2.84878 978.628 5.18986 978.592 11.5181C978.336 57.2059 978.482 102.857 978.446 148.545C978.446 173.199 978.446 197.854 978.446 222.508V222.435Z" fill="#D4D4D4"/>
<path d="M858.683 7.04492C863.512 7.88625 863.11 12.5318 864.28 15.5679C873.461 39.6006 882.167 63.7797 891.202 87.849C893.543 94.104 894.641 100.615 895.775 107.126C896.323 143.34 896.47 179.554 895.775 215.804C895.665 222.315 892.958 223.449 887.544 223.12C878.473 222.534 866.804 226.778 860.951 221.547C854.916 216.17 859.013 204.281 858.976 195.283C858.72 132.549 858.757 69.8153 858.683 7.1181V7.04492Z" fill="#D4D4D4"/>
<path d="M1051.09 191.59C1069.16 192.541 1074.42 187.53 1074.5 169.167C1074.5 166.716 1074.21 164.265 1074.57 161.851C1075.92 152.633 1072.89 148.024 1062.9 149.78C1057.63 150.694 1055.95 147.914 1056.17 142.939C1056.46 136.538 1056.54 130.136 1056.17 123.772C1055.81 117.955 1058.29 116.529 1063.67 116.639C1077.39 116.931 1091.1 116.931 1104.79 116.639C1110.24 116.529 1112.43 118.102 1112.21 123.845C1111.52 142.683 1113.02 161.558 1110.78 180.397C1108.08 203.442 1087.41 223.524 1063.01 226.011C1039.86 228.389 1015.9 213.282 1008.51 191.663C1022.7 191.663 1036.89 191.663 1051.09 191.663V191.59Z" fill="white"/>
<path d="M1051.09 191.581C1036.9 191.581 1022.71 191.581 1008.52 191.581C1005.11 184.887 1004.64 177.681 1004.64 170.365C1004.64 132.176 1004.71 93.9506 1004.57 55.7616C1004.57 48.336 1005.96 41.3493 1008.52 34.509C1015.69 34.2163 1022.78 33.814 1029.95 33.0824C1038.36 32.241 1047.18 31.1437 1055.63 34.0334C1044.33 37.289 1041.14 45.6291 1041.18 56.3835C1041.29 93.8043 1041.4 131.188 1041.07 168.609C1041 178.12 1043.23 185.875 1051.09 191.581Z" fill="#D4D4D4"/>
<path d="M198.395 191.584C195.03 184.89 194.518 177.684 194.518 170.368C194.518 132.179 194.591 93.9531 194.444 55.7642C194.444 48.3386 195.834 41.3519 198.395 34.5115C212.917 34.6944 227.475 33.4507 241.997 34.8408C233.877 39.2669 231.06 46.473 231.06 55.3253C231.133 94.0263 231.06 132.727 231.06 171.428C231.06 179.11 232.853 185.877 239.949 190.194C226.195 193.486 212.222 190.742 198.358 191.62L198.395 191.584Z" fill="#D4D4D4"/>
<path d="M727.04 38.215C739.221 38.1419 751.402 38.0321 763.583 37.959C763.473 87.9997 763.364 138.04 763.254 188.045C751.183 188.045 739.075 187.971 727.004 187.935C727.004 138.04 727.004 88.1094 727.004 38.215H727.04Z" fill="#D4D4D4"/>
<path d="M198.395 191.584C212.258 190.742 226.232 193.486 239.986 190.157C254.764 194.766 263.872 188.438 264.384 173.257C264.384 172.343 264.384 171.428 264.384 170.514C264.53 156.687 271.675 149.773 285.819 149.773C296.769 149.773 302.146 155.248 301.951 166.198C301.402 198.57 285.088 219.713 256.263 225.383C232.853 229.992 206.113 214.409 198.358 191.547L198.395 191.584Z" fill="white"/>
<path d="M497.51 155.02C485.512 155.02 473.514 155.093 461.516 155.129C462.54 140.571 467.259 126.78 470.368 112.661C478.086 77.8736 486.133 43.1963 494.035 8.44584C494.4 6.76318 493.961 4.71474 496.083 3.76367C500.655 24.7603 505.228 45.7569 509.764 66.7535C511.044 72.6793 512.105 78.6418 513.239 84.5677C508.008 108.052 502.74 131.499 497.51 154.983V155.02Z" fill="#D4D4D4"/>
<path d="M242.002 34.8351C227.48 33.4451 212.958 34.6522 198.399 34.5059C210.946 0.999131 252.829 -13.2303 285.238 15.4846C299.212 27.8485 301.882 45.114 301.955 62.8916C301.955 66.5129 299.98 67.6103 296.724 67.5372C292.774 67.464 288.823 67.5737 284.873 67.5372C278.801 67.4274 271.704 69.2198 266.949 66.6227C261.169 63.4768 265.193 55.5757 264.352 49.8327C262.633 38.2736 255.829 33.5183 242.002 34.8717V34.8351Z" fill="white"/>
<path d="M1055.59 34.072C1047.14 31.1822 1038.36 32.2796 1029.91 33.1209C1022.75 33.8525 1015.65 34.2183 1008.48 34.5475C1021.06 1.00412 1062.98 -13.1887 1095.36 15.5627C1109.29 27.9266 1112 45.2287 1112.04 63.0063C1112.04 66.6642 1109.91 67.6153 1106.73 67.5787C1102.78 67.5056 1098.83 67.6153 1094.88 67.5787C1088.81 67.469 1081.64 69.2614 1076.96 66.6277C1071.32 63.4818 1075.31 55.5441 1074.4 49.7645C1072.82 39.5223 1067.52 34.8767 1055.56 34.1085L1055.59 34.072Z" fill="white"/>
<path d="M359.234 96.5984C347.09 96.5984 334.945 96.5618 322.801 96.5253C322.728 67.5909 322.801 38.6566 322.435 9.72221C322.362 4.16213 324.63 3.10132 329.459 3.28421C337.067 3.57685 344.712 3.72319 352.284 3.24766C358.246 2.88186 359.307 5.40584 359.271 10.6733C359.088 39.315 359.197 67.9567 359.197 96.5984H359.234Z" fill="#D4D4D4"/>
<path d="M322.909 129.658C335.236 129.658 347.6 129.658 359.927 129.658C359.671 157.861 359.232 186.1 359.342 214.303C359.342 220.851 358.025 223.777 350.892 223.046C341.894 222.131 330.188 226.63 324.482 221.399C318.629 216.022 322.763 204.207 322.653 195.209C322.47 173.371 322.763 151.496 322.909 129.658Z" fill="#D4D4D4"/>
<path d="M634.09 112.869C621.8 112.869 609.545 112.869 597.255 112.906C597.255 87.4097 597.218 61.9138 597.182 36.418C609.472 36.418 621.763 36.418 634.054 36.418C633.468 61.8773 633.066 87.3731 634.054 112.832L634.09 112.869Z" fill="#D4D4D4"/>
<path d="M1.81931 146.039C14.2562 146.039 26.6932 145.966 39.1301 145.93C38.9838 168.682 38.5814 191.398 38.8009 214.15C38.874 220.625 37.5937 223.734 30.3511 222.966C21.3526 222.052 9.79354 226.587 3.94086 221.247C-2.02155 215.796 2.22164 204.091 2.00217 195.129C1.63637 178.778 1.85589 162.39 1.81931 146.003V146.039Z" fill="#D4D4D4"/>
<path d="M597.177 146.088C609.431 146.088 621.722 146.088 633.976 146.088C633.83 169.133 633.537 192.178 633.683 215.223C633.683 220.966 632.366 223.453 626.148 223.051C618.613 222.539 610.968 222.649 603.396 223.051C598.055 223.307 596.738 221.149 596.811 216.174C597.104 192.836 597.067 169.462 597.177 146.124V146.088Z" fill="#D4D4D4"/>
<path d="M1.70746 36.3784C14.2541 36.3784 26.8009 36.3784 39.3109 36.3418C39.0183 61.289 38.7257 86.2362 38.433 111.147C26.2521 111.147 14.0713 111.147 1.85381 111.147C1.78065 86.2362 1.74406 61.289 1.6709 36.3784H1.70746Z" fill="#D4D4D4"/>
<path d="M452.841 189.989C465.022 189.989 477.239 189.953 489.42 189.916C487.335 199.061 485.25 208.206 483.201 217.351C482.287 221.484 480.092 223.496 475.556 223.057C465.68 222.106 455.657 224.593 445.891 221.74C447.866 212.595 449.805 203.487 451.78 194.342C452.109 192.879 452.475 191.379 452.841 189.916V189.989Z" fill="#D4D4D4"/>
</svg>
